# xmcd CD database file
#
# Track frame offsets:
#	150
#	9972
#	19540
#	30007
#	44635
#	60630
#	71867
#	85025
#	95380
#	110682
#	129380
#	141580
#	153182
#	165735
#	177237
#	190917
#	204160
#	218462
#	228015
#	243772
#	266612
#
# Disc length: 4440 seconds
#
# Revision: 0
# Processed by: cddbd v1.4PL0 Copyright (c) Steve Scherf et al.
# Submitted via: CDex 1.50beta10
#
DISCID=09115615
DTITLE=Dinah Washington - Sings the Standards
DYEAR=2003
DGENRE=Jazz
TTITLE0=I left my heart in San Francisco
TTITLE1=Baby won't you please come home
TTITLE2=Call me irresponsible
TTITLE3=For all we know
TTITLE4=The man that got away
TTITLE5=Fly me to the moon
TTITLE6=Coquette
TTITLE7=Do nothin' till you hear from me
TTITLE8=Is you or is you ain't my baby
TTITLE9=There must be a way
TTITLE10=Let me be the first to know
TTITLE11=Destination moon
TTITLE12=You're nobody till somebody loves you
TTITLE13=Red sails in the sunset
TTITLE14=Lover man
TTITLE15=I'll be around
TTITLE16=Say it isn't so
TTITLE17=What kind of fool am i
TTITLE18=The foolish things
TTITLE19=Don't say nothing at all
TTITLE20=xxx
EXTD=YEAR: 2003
EXTT0=
EXTT1=
EXTT2=
EXTT3=
EXTT4=
EXTT5=
EXTT6=
EXTT7=
EXTT8=
EXTT9=
EXTT10=
EXTT11=
EXTT12=
EXTT13=
EXTT14=
EXTT15=
EXTT16=
EXTT17=
EXTT18=
EXTT19=
EXTT20=
PLAYORDER=
